<svg xmlns="http://www.w3.org/2000/svg" viewBox="0 0 512 512" width="512" height="512">
<rect width="512" height="512" rx="0" fill="#0d0d0d"/>
<path d="M318 -16Q230 -16 148.0 4.0Q66 24 13 56L89 228Q139 199 200.5 181.5Q262 164 320 164Q354 164 373.5 168.5Q393 173 402.0 181.5Q411 190 411 202Q411 221 390.0 232.0Q369 243 334.5 250.5Q300 258 259.0 266.5Q218 275 176.5 289.0Q135 303 100.5 326.0Q66 349 45.0 386.5Q24 424 24 480Q24 545 60.5 598.5Q97 652 169.5 684.0Q242 716 350 716Q421 716 490.0 701.0Q559 686 614 655L543 484Q491 510 442.5 523.0Q394 536 348 536Q314 536 294.0 530.0Q274 524 265.5 514.0Q257 504 257 492Q257 474 278.0 463.5Q299 453 333.5 446.0Q368 439 409.5 431.0Q451 423 492.0 409.0Q533 395 567.5 372.0Q602 349 623.0 312.0Q644 275 644 220Q644 156 607.5 102.5Q571 49 499.0 16.5Q427 -16 318 -16Z" transform="translate(121.37,369.44) scale(0.40984,-0.40984)" fill="#ffffff"/>
<rect x="210" y="406" width="92" height="13" rx="6" fill="#c60d0d"/>
</svg>