<?xml version="1.0" encoding="utf-8"?>
<!-- Generator: Adobe Illustrator 22.0.1, SVG Export Plug-In . SVG Version: 6.00 Build 0)  -->
<svg version="1.1" id="Layer_1" xmlns="http://www.w3.org/2000/svg" xmlns:xlink="http://www.w3.org/1999/xlink" width="200" height="200"
	 viewBox="0 0 200 200" enable-background="new 0 0 200 200" xml:space="preserve">
<g>
	<path fill-rule="evenodd" clip-rule="evenodd" d="M99.969,0C155.063,0,200,44.903,200,99.968C200,155.064,155.063,200,99.969,200
		C44.934,200,0,155.064,0,99.968C0,44.903,44.934,0,99.969,0L99.969,0z"/>
	<path fill-rule="evenodd" clip-rule="evenodd" fill="#F9A51A" d="M99.969,2.424c53.76,0,97.575,43.848,97.575,97.545
		c0,53.73-43.814,97.575-97.575,97.575c-53.698,0-97.516-43.846-97.516-97.575C2.453,46.271,46.271,2.424,99.969,2.424L99.969,2.424
		z"/>
	<path fill-rule="evenodd" clip-rule="evenodd" d="M125.449,12.058l-1.43,7.488l-14.914,14.482c3.603,0.777,7.052,1.585,10.035,2.61
		l-1.802,6.496c-5.498-1.68-11.31-2.58-17.37-2.58c-0.686,0-1.337,0-2.019,0.031l0.837-6.899l15.63-16.159
		c-3.759-0.808-8.017-1.304-12.771-1.399l0.744-7.674C110.377,8.67,118.087,9.911,125.449,12.058L125.449,12.058z"/>
	<path fill-rule="evenodd" clip-rule="evenodd" d="M149.967,23.368l-3.604,6.742c-4.072-2.734-7.148-4.38-11.221-6.277
		c-0.62-0.31-0.744-0.155-0.899,0.217l-2.019,4.818c3.728,1.773,7.49,3.791,11.248,6.31c0.155,0.091,0.093,0.186,0.062,0.248
		l-3.355,5.405c-0.093,0.155-0.155,0.186-0.434,0c-3.262-2.112-6.525-4.008-9.822-5.436c-0.31-0.126-0.434-0.126-0.589,0.186
		c-0.655,1.337-1.244,2.766-1.802,4.258c3.79,1.771,7.459,3.914,10.535,6.213l-3.201,5.843c-4.82-3.45-10.287-6.339-15.975-8.267
		l11.031-30.143C137.041,15.971,143.783,19.296,149.967,23.368L149.967,23.368z"/>
	<path fill-rule="evenodd" clip-rule="evenodd" d="M96.269,40.676c-2.811,0.174-5.54,0.544-8.237,1.097
		c-2.432,0.505-4.816,1.132-7.145,1.917l-3.51-6.277c-2.301,0.746-4.599,1.709-6.993,2.921l0.624,7.8
		c-2.853,1.602-5.54,3.421-8.058,5.429l0.01,0.009c-2.084,1.647-4.041,3.419-5.843,5.345l-10.535-4.63l4.971,11.31
		c-1.926,2.735-3.666,5.657-5.126,8.702L30.888,40.023c1.957-2.238,4.01-4.38,6.153-6.401l5.188,8.95l1.244-14.512
		c2.89-2.3,5.905-4.382,9.074-6.308l-2.859,20.292l12.14,10.549l-0.768-35.44c3.638-1.709,7.427-3.201,11.314-4.444l15.014,26.398
		L86.792,9.384c3.386-0.498,6.838-0.808,10.349-0.903L96.269,40.676L96.269,40.676L96.269,40.676z M73.68,30.827l-3.855-6.868
		c-0.682-1.275-0.872-1.244-0.744,0.186l0.651,8.329C71.006,31.852,72.343,31.292,73.68,30.827L73.68,30.827z"/>
	<path fill-rule="evenodd" clip-rule="evenodd" d="M160.595,31.478c2.053,1.802,3.576,3.386,4.754,5.004
		c1.771,2.517,2.704,5.717,2.89,8.793c0.279,4.289-1.213,8.019-5.343,10.287c-1.585,0.837-3.917,0.806-6.715,0.62l-3.418,16.502
		c-1.585-3.046-3.417-5.905-5.471-8.608l1.089-10.628l-1.457-1.399l-4.355,6.527c-1.802-1.834-3.697-3.574-5.715-5.159
		l16.998-26.942C157.736,28.68,159.851,30.796,160.595,31.478L160.595,31.478L160.595,31.478z M157.863,39.527l-1.585-1.523
		l-4.478,6.713l1.585,1.43c1.12,0.961,2.208,1.957,3.669,1.647c1.647-0.374,3.231-2.021,3.138-4.103
		C160.13,42.416,159.448,41.143,157.863,39.527L157.863,39.527z"/>
	<path fill-rule="evenodd" clip-rule="evenodd" d="M93.94,159.136l-2.394,32.007c-3.914-0.341-7.738-0.963-11.496-1.803
		l5.126-31.788C88.004,158.295,90.957,158.824,93.94,159.136L93.94,159.136z"/>
	<path fill-rule="evenodd" clip-rule="evenodd" d="M44.279,172.527c-5.901-4.535-11.186-9.817-15.878-15.567
		c-1.802-2.238-0.589-4.194,0.248-5.314c2.084-2.891,14.483-22.934,17.745-23.37c1.275-0.153,1.678,0.686,2.267,1.585
		c2.58,3.762,5.378,8.051,9.043,11.81l-2.856,6.618c-2.332-2.174-4.727-4.816-6.714-7.3c-0.868-0.84-1.709-0.281-2.208,0.248
		c-2.918,4.039-5.467,7.955-8.172,12.43c-0.465,0.746-0.558,1.304-0.062,1.833c3.232,3.574,6.029,6.589,9.725,9.789L44.279,172.527
		L44.279,172.527z"/>
	<path fill-rule="evenodd" clip-rule="evenodd" d="M67.461,149.688l-3.604,10.287l6.963,3.386l3.17-9.944
		c2.549,1.245,5.188,2.301,7.924,3.17l-6.804,31.511c-3.359-0.963-6.621-2.081-9.791-3.418l2.704-11l-7.459-3.667l-3.976,10.535
		c-3.173-1.709-6.249-3.636-9.171-5.688c4.01-10.347,8.268-20.602,12.805-30.763C62.49,146.146,64.915,148.01,67.461,149.688
		L67.461,149.688z"/>
	<path fill-rule="evenodd" clip-rule="evenodd" d="M119.702,156.06l7.579,31.325c3.169-0.996,6.246-2.176,9.264-3.481l-4.01-12.926
		c3.138-1.462,6.37-3.201,9.818-5.44c0.344-0.217,0.248-0.341,0.186-0.498l-2.143-5.002c-0.248-0.651-0.651-0.808-1.182-0.467
		c-3.077,1.989-6.056,3.729-8.733,4.88l-1.523-5.002c2.863-1.368,6.122-3.201,10.538-6.436l-2.797-6.339
		C131.633,150.683,125.886,153.853,119.702,156.06L119.702,156.06z"/>
	<path fill-rule="evenodd" clip-rule="evenodd" d="M139.153,144.653l7.893,17.622c4.289-3.355,7.803-6.556,10.473-9.571l3.201,5.097
		c-4.038,4.225-8.513,8.048-13.425,11.434l2.797,7.302c7.927-5.221,15.01-11.622,21.008-18.986l-11.717-16.905
		c-0.124-0.186-0.465-0.467-0.744-0.031c-2.735,3.853-5.502,7.085-8.237,9.757l-2.577-4.691c3.418-3.7,5.967-7.056,7.955-10.163
		l-3.855-5.5c-0.186-0.248-0.403-0.465-0.744,0.124C147.949,135.58,143.876,140.491,139.153,144.653L139.153,144.653z"/>
	<path fill-rule="evenodd" clip-rule="evenodd" d="M116.657,158.233l0.403,5.657l-11.407,2.114l-0.031,5.128
		c4.386-0.436,7.927-0.965,10.879-1.712c0.527-0.121,0.775,0.188,0.837,0.872l0.434,5.748c-4.286,0.903-8.389,1.585-12.058,1.865
		l-0.031,5.781c4.692-0.219,9.633-1.058,14.793-2.332c1.213-0.31,1.151,0.374,1.213,0.686l0.713,6.711
		c-7.176,1.834-14.697,2.797-22.434,2.797c-0.903,0-1.74-0.031-2.642-0.031l-0.124-32.162c0.934,0.062,1.833,0.062,2.766,0.062
		c5.374,0,10.563-0.717,15.506-2.052C116.064,157.208,116.595,157.239,116.657,158.233L116.657,158.233z"/>
	<path fill-rule="evenodd" clip-rule="evenodd" d="M113.208,150.683c-1.681,0.465-3.39,0.806-5.13,1.087l4.196-69.234l20.946-20.386
		c0.93,0.839,1.86,1.709,2.732,2.611l-11.496,10.533l0.465,0.529l12.306-9.695c4.599,5.033,8.172,10.969,10.442,17.556
		l-17.312,7.955l0.22,0.622l18.331-4.63c0.996,3.946,1.554,8.112,1.554,12.337c0,2.952-0.217,5.936-0.713,8.732l-5.002,1.273
		l-0.31,12.619c0,0.217-0.093,0.279-0.282,0.372c-0.558,0.31-1.833,0.589-2.577,0.651l-15.568,1.616
		c-1.027,0.126-1.306-0.775-1.368-1.647l-2.518-30.577l-1.709-1.244l4.382,52.953c-2.735,1.525-5.626,2.828-8.671,3.822
		l0.031-55.127h-1.116L113.208,150.683L113.208,150.683z"/>
	<polygon fill-rule="evenodd" clip-rule="evenodd" points="124.143,56.151 127.781,61.653 126.878,62.46 118.831,52.982 
		114.325,50.653 112.306,53.168 124.364,64.668 123.275,65.631 107.052,50.465 99.749,48.569 96.738,51.18 119.203,69.205 
		118.335,69.949 91.484,50.404 85.3,49.689 80.639,53.823 115.286,72.654 114.418,73.43 77.593,55.284 69.205,57.023 69.67,63.734 
		111.748,75.761 110.408,76.941 64.605,64.606 57.333,68.581 57.395,77.656 107.176,80.112 107.149,81.945 54.597,81.106 
		49.254,86.947 53.416,97.016 107.086,84.338 107.052,86.668 50.653,103.759 49.068,112.71 58.763,118.768 107.021,89.342 
		106.959,92.013 58.205,125.793 60.781,135.642 69.36,138.532 106.932,94.127 106.901,96.737 73.835,140.491 78.806,148.508 
		87.35,148.446 106.838,99.596 106.773,103.728 90.771,148.57 97.482,152.392 105.254,145.4 110.377,81.075 131.23,60.503 
		128.184,56.587 126.227,56.245 124.143,56.151 	"/>
	<path fill-rule="evenodd" clip-rule="evenodd" d="M25.232,83.904c-4.103,0-7.972,1.605-10.886,4.525
		c-2.918,2.916-4.527,6.783-4.527,10.886c0,4.126,1.609,8.001,4.527,10.921c2.918,2.916,6.783,4.522,10.886,4.522
		c4.093,0,7.968-1.605,10.921-4.522c2.918-2.92,4.523-6.796,4.523-10.921c0-4.103-1.605-7.97-4.523-10.886
		C33.2,85.509,29.324,83.904,25.232,83.904L25.232,83.904z"/>
	<path fill-rule="evenodd" clip-rule="evenodd" d="M185.655,88.429c-2.949-2.92-6.828-4.525-10.917-4.525
		c-4.096,0-7.972,1.605-10.924,4.523c-2.914,2.951-4.523,6.818-4.523,10.888c0,4.093,1.609,7.97,4.523,10.921
		c2.952,2.916,6.831,4.522,10.924,4.522c4.089,0,7.968-1.605,10.917-4.522c2.918-2.951,4.523-6.828,4.523-10.921
		C190.178,95.245,188.573,91.378,185.655,88.429L185.655,88.429z"/>
	<path fill-rule="evenodd" clip-rule="evenodd" fill="#FFFFFF" d="M34.961,89.962c-0.158,0-0.313,0-0.468,0s-0.31,0-0.465,0
		c-0.186,0-0.372,0-0.558,0c-1.12,0-2.239,0.031-3.355,0.062c-0.407,1.182-0.81,2.363-1.12,3.543c1.275,1.43,2.36,3.139,3.325,4.754
		c1.43,0.279,2.921,0.343,4.382,0.436c0.682-0.996,1.271-2.082,1.771-3.231C37.413,93.629,36.108,91.827,34.961,89.962
		L34.961,89.962z"/>
	<path fill-rule="evenodd" clip-rule="evenodd" fill="#FFFFFF" d="M28.839,113.02c1.209-1.304,2.205-2.92,2.825-4.567
		c-0.992-1.089-2.019-2.145-2.89-3.357c-1.895,0.279-3.852,0.341-5.808,0.248c-0.592,0.934-1.213,1.864-1.898,2.735l0,0
		c-0.248,0.281-0.465,0.558-0.713,0.839c0.872,1.49,1.833,2.92,3.045,4.165C25.201,113.146,27.034,113.115,28.839,113.02
		L28.839,113.02z"/>
	<path fill-rule="evenodd" clip-rule="evenodd" fill="#FFFFFF" d="M20.167,90.148c-1.647,0.219-3.294,0.467-4.909,0.808
		c-1.027,1.555-1.833,3.295-2.456,5.066c0.465,1.461,1.089,2.89,1.895,4.196c1.399-0.312,2.798-0.686,4.165-1.087
		c0.872-1.835,1.864-3.667,3.014-5.347C21.349,92.542,20.788,91.33,20.167,90.148L20.167,90.148z"/>
	<path fill-rule="evenodd" clip-rule="evenodd" fill="#FFFFFF" d="M34.992,88.658c-0.624-0.562-1.306-1.087-2.022-1.554
		c-0.713-0.436-1.492-0.839-2.298-1.182c-0.779-0.31-1.588-0.56-2.425-0.746c-0.81-0.155-1.647-0.25-2.484-0.281l0.059,1.461
		c1.368,0.809,2.673,1.71,3.948,2.673c1.585-0.093,3.169-0.124,4.723-0.093l0,0l0,0l0,0c0.155,0,0.31,0,0.437,0
		c0.031-0.062,0.031-0.093,0.031-0.124l0,0c0-0.031,0.031-0.093,0.031-0.093l0,0C34.992,88.72,34.992,88.689,34.992,88.658
		L34.992,88.658z"/>
	<path fill-rule="evenodd" clip-rule="evenodd" fill="#FFFFFF" d="M38.192,105.78c0.248-0.467,0.465-0.963,0.651-1.461
		c0.372-1.087,0.651-2.176,0.779-3.294c0.093-0.841,0.124-1.711,0.062-2.549c0-0.279-0.031-0.56-0.062-0.839l0,0l0,0l0,0
		c-0.065-0.496-0.158-1.025-0.283-1.554c-0.527,1.182-1.116,2.3-1.864,3.357c0.186,1.864,0.217,3.914-0.248,5.746L38.192,105.78
		L38.192,105.78z"/>
	<path fill-rule="evenodd" clip-rule="evenodd" fill="#FFFFFF" d="M30.296,112.865c0.903-0.343,1.774-0.746,2.58-1.273
		c0.468-0.281,0.934-0.591,1.368-0.934c0.434-0.343,0.84-0.716,1.244-1.118c0.651-0.655,1.244-1.368,1.74-2.145
		c0.186-0.219,0.31-0.467,0.465-0.715l-0.992-0.622c-1.213,1.087-2.456,2.021-4.01,2.548
		C32.132,110.131,31.323,111.592,30.296,112.865L30.296,112.865z"/>
	<path fill-rule="evenodd" clip-rule="evenodd" fill="#FFFFFF" d="M13.704,108.018c0.837,1.118,1.833,2.114,2.953,2.951
		c0.589,0.405,1.209,0.808,1.833,1.151c1.213,0.653,2.546,1.12,3.883,1.397c-1.213-1.335-2.174-2.827-3.076-4.38
		c-1.585-0.498-2.921-1.211-4.193-2.301L13.704,108.018L13.704,108.018L13.704,108.018L13.704,108.018z M22.558,113.578
		L22.558,113.578L22.558,113.578L22.558,113.578z"/>
	<path fill-rule="evenodd" clip-rule="evenodd" fill="#FFFFFF" d="M10.938,97.234c-0.093,0.527-0.124,1.025-0.155,1.523
		c0,0.186,0,0.374,0,0.558c0,1.399,0.186,2.798,0.589,4.165c0.406,1.306,0.996,2.548,1.709,3.697l1.461-1.211
		c-0.465-1.616-0.713-3.325-0.589-5.004c-0.841-1.275-1.461-2.703-1.957-4.132C11.651,96.954,11.279,97.079,10.938,97.234
		L10.938,97.234z"/>
	<path fill-rule="evenodd" clip-rule="evenodd" fill="#FFFFFF" d="M24.736,84.896c-0.872,0.031-1.74,0.126-2.549,0.312
		c-0.868,0.186-1.709,0.467-2.515,0.777c-0.81,0.343-1.616,0.777-2.332,1.275c-0.744,0.465-1.43,1.025-2.081,1.616
		c0.062,0.343,0.124,0.653,0.217,0.994c1.647-0.31,3.325-0.591,5.002-0.777c1.368-1.025,2.797-1.957,4.32-2.797L24.736,84.896
		L24.736,84.896z"/>
	<path fill-rule="evenodd" clip-rule="evenodd" fill="#FFFFFF" d="M22.775,94.282c-0.093,0.124-0.186,0.279-0.276,0.434l0,0
		c-0.128,0.155-0.22,0.312-0.314,0.467c-0.124,0.155-0.217,0.343-0.31,0.498l0,0c-0.124,0.186-0.217,0.37-0.341,0.56
		c-0.155,0.246-0.31,0.527-0.438,0.808c-0.155,0.279-0.31,0.558-0.465,0.808c-0.155,0.31-0.279,0.558-0.434,0.839
		c-0.124,0.279-0.279,0.558-0.403,0.806c0.248,0.467,0.496,0.901,0.744,1.337c0.248,0.436,0.496,0.872,0.748,1.275
		c0.248,0.403,0.527,0.777,0.775,1.151c0.279,0.37,0.558,0.713,0.81,1.025c0.279,0.031,0.527,0.031,0.775,0.062
		c0.279,0,0.558,0,0.809,0c0.279,0,0.558,0,0.837,0l0,0c0.279,0,0.558-0.031,0.84-0.031c0.248,0,0.496-0.031,0.744-0.031
		c0.248-0.031,0.496-0.062,0.716-0.062c0.217-0.031,0.434-0.062,0.651-0.095c0.217-0.031,0.403-0.031,0.624-0.062
		c0.186-0.31,0.403-0.653,0.62-0.992c0.779-1.337,1.399-2.798,1.926-4.258c-0.93-1.585-2.019-3.294-3.263-4.663
		c-1.368,0-2.704,0-4.041,0.064C23.678,94.22,23.213,94.251,22.775,94.282L22.775,94.282z"/>
	<path fill-rule="evenodd" clip-rule="evenodd" fill="#FFFFFF" d="M184.463,89.962c-0.155,0-0.31,0-0.468,0c-0.155,0-0.31,0-0.496,0
		c-0.155,0-0.345,0-0.527,0c-1.12,0-2.239,0.031-3.359,0.062c-0.403,1.182-0.806,2.363-1.116,3.543
		c1.275,1.43,2.36,3.139,3.325,4.754c1.43,0.279,2.887,0.343,4.351,0.436c0.713-0.996,1.306-2.082,1.802-3.231
		C186.885,93.629,185.61,91.827,184.463,89.962L184.463,89.962z"/>
	<path fill-rule="evenodd" clip-rule="evenodd" fill="#FFFFFF" d="M178.337,113.02c1.216-1.304,2.208-2.92,2.832-4.567
		c-0.996-1.089-2.053-2.145-2.894-3.357c-1.922,0.279-3.883,0.341-5.808,0.248c-0.593,0.934-1.244,1.864-1.926,2.735l0,0
		c-0.22,0.281-0.438,0.558-0.686,0.839c0.872,1.49,1.833,2.92,3.045,4.165C174.703,113.146,176.508,113.115,178.337,113.02
		L178.337,113.02z"/>
	<path fill-rule="evenodd" clip-rule="evenodd" fill="#FFFFFF" d="M169.67,90.148c-1.647,0.219-3.293,0.467-4.94,0.808
		c-1.027,1.555-1.833,3.295-2.425,5.066c0.469,1.461,1.058,2.89,1.898,4.196c1.395-0.312,2.763-0.686,4.162-1.087
		c0.872-1.835,1.833-3.667,3.014-5.347C170.851,92.542,170.29,91.33,169.67,90.148L169.67,90.148z"/>
	<path fill-rule="evenodd" clip-rule="evenodd" fill="#FFFFFF" d="M184.494,88.658c-0.624-0.562-1.306-1.087-2.022-1.554
		c-0.744-0.436-1.488-0.839-2.298-1.182c-0.779-0.31-1.585-0.56-2.456-0.746c-0.775-0.155-1.616-0.25-2.453-0.281l0.062,1.461
		c1.364,0.809,2.674,1.71,3.945,2.673c1.554-0.093,3.138-0.124,4.723-0.093l0,0l0,0l0,0c0.159,0,0.283,0,0.438,0
		c0-0.062,0.031-0.093,0.031-0.124l0,0c0-0.031,0-0.093,0-0.093l0,0C184.494,88.72,184.494,88.689,184.494,88.658L184.494,88.658z"
		/>
	<path fill-rule="evenodd" clip-rule="evenodd" fill="#FFFFFF" d="M187.694,105.78c0.217-0.467,0.434-0.963,0.62-1.461
		c0.403-1.087,0.655-2.176,0.81-3.294c0.093-0.841,0.124-1.711,0.062-2.549c0-0.279-0.031-0.56-0.062-0.839l0,0l0,0l0,0
		c-0.062-0.496-0.155-1.025-0.282-1.554c-0.527,1.182-1.147,2.3-1.895,3.357c0.217,1.864,0.217,3.914-0.217,5.746L187.694,105.78
		L187.694,105.78z"/>
	<path fill-rule="evenodd" clip-rule="evenodd" fill="#FFFFFF" d="M179.798,112.865c0.903-0.343,1.771-0.746,2.58-1.273
		c0.468-0.281,0.903-0.591,1.337-0.934c0.438-0.343,0.872-0.716,1.244-1.118c0.651-0.655,1.244-1.368,1.771-2.145
		c0.155-0.219,0.31-0.467,0.465-0.715l-0.992-0.622c-1.213,1.087-2.456,2.021-4.01,2.548
		C181.634,110.131,180.794,111.592,179.798,112.865L179.798,112.865z"/>
	<path fill-rule="evenodd" clip-rule="evenodd" fill="#FFFFFF" d="M163.172,108.018c0.841,1.118,1.867,2.114,2.987,2.951
		c0.589,0.405,1.182,0.808,1.833,1.151c1.213,0.653,2.518,1.12,3.883,1.397c-1.209-1.335-2.205-2.827-3.076-4.38
		c-1.585-0.498-2.918-1.211-4.193-2.301L163.172,108.018L163.172,108.018L163.172,108.018L163.172,108.018z M172.061,113.578
		L172.061,113.578L172.061,113.578L172.061,113.578z"/>
	<path fill-rule="evenodd" clip-rule="evenodd" fill="#FFFFFF" d="M160.409,97.234c-0.062,0.527-0.124,1.025-0.124,1.523
		c0,0.186-0.031,0.374-0.031,0.558c0,1.399,0.217,2.798,0.62,4.165c0.407,1.306,0.965,2.548,1.712,3.697l1.457-1.211
		c-0.496-1.616-0.744-3.325-0.589-5.004c-0.837-1.275-1.461-2.703-1.957-4.132C161.126,96.954,160.781,97.079,160.409,97.234
		L160.409,97.234z"/>
	<path fill-rule="evenodd" clip-rule="evenodd" fill="#FFFFFF" d="M174.238,84.896c-0.872,0.031-1.74,0.126-2.55,0.312
		c-0.868,0.186-1.705,0.467-2.515,0.777c-0.841,0.343-1.616,0.777-2.363,1.275c-0.713,0.465-1.43,1.025-2.053,1.616
		c0.065,0.343,0.127,0.653,0.22,0.994c1.647-0.31,3.324-0.591,4.971-0.777c1.399-1.025,2.828-1.957,4.32-2.797L174.238,84.896
		L174.238,84.896z"/>
	<path fill-rule="evenodd" clip-rule="evenodd" fill="#FFFFFF" d="M172.281,94.282c-0.093,0.124-0.22,0.279-0.314,0.434l0,0
		c-0.093,0.155-0.186,0.312-0.31,0.467c-0.093,0.155-0.186,0.343-0.31,0.498l0,0c-0.093,0.186-0.217,0.37-0.31,0.56
		c-0.155,0.246-0.31,0.527-0.465,0.808c-0.158,0.279-0.282,0.558-0.437,0.808c-0.152,0.31-0.31,0.558-0.434,0.839
		c-0.155,0.279-0.279,0.558-0.403,0.806c0.248,0.467,0.465,0.901,0.713,1.337c0.248,0.436,0.5,0.872,0.779,1.275
		c0.248,0.403,0.496,0.777,0.775,1.151c0.279,0.37,0.531,0.713,0.81,1.025c0.248,0.031,0.527,0.031,0.779,0.062
		c0.276,0,0.527,0,0.806,0c0.279,0,0.558,0,0.84,0l0,0c0.276,0,0.558-0.031,0.837-0.031c0.248,0,0.496-0.031,0.748-0.031
		c0.244-0.031,0.465-0.062,0.682-0.062c0.248-0.031,0.465-0.062,0.682-0.095c0.189-0.031,0.407-0.031,0.589-0.062
		c0.22-0.31,0.437-0.653,0.624-0.992c0.81-1.337,1.43-2.798,1.957-4.258c-0.934-1.585-2.019-3.294-3.293-4.663
		c-1.333,0-2.673,0-4.01,0.064C173.153,94.22,172.715,94.251,172.281,94.282L172.281,94.282z"/>
</g>
</svg>
