<?xml version="1.0" encoding="utf-8"?>
<!-- Generator: Adobe Illustrator 16.0.0, SVG Export Plug-In . SVG Version: 6.00 Build 0)  -->
<!DOCTYPE svg PUBLIC "-//W3C//DTD SVG 1.1//EN" "http://www.w3.org/Graphics/SVG/1.1/DTD/svg11.dtd">
<svg version="1.1" id="Layer_1" xmlns="http://www.w3.org/2000/svg" xmlns:xlink="http://www.w3.org/1999/xlink" x="0px" y="0px"
	 width="1100px" height="320px" viewBox="0 0 1100 320" enable-background="new 0 0 1100 320" xml:space="preserve">
<polygon fill="#D52329" points="117.487,22.52 144.506,101.945 144.825,101.945 170.385,22.52 206.136,22.52 206.136,138.025 
	182.357,138.025 182.357,56.165 182.029,56.165 153.722,138.025 134.149,138.025 105.842,56.976 105.515,56.976 105.515,138.025 
	81.735,138.025 81.735,22.52 "/>
<path fill="#D52329" d="M243.715,106.073c0.648,3.184,1.748,6.04,3.317,8.576c1.561,2.529,3.636,4.55,6.228,6.064
	c2.59,1.515,5.822,2.264,9.709,2.264c3.878,0,7.14-0.749,9.786-2.264c2.638-1.514,4.737-3.535,6.306-6.064
	c1.561-2.536,2.669-5.392,3.317-8.576c0.648-3.177,0.968-6.447,0.968-9.787c0-3.341-0.32-6.634-0.968-9.873
	c-0.648-3.231-1.756-6.087-3.317-8.569c-1.569-2.482-3.668-4.503-6.306-6.064c-2.646-1.569-5.908-2.349-9.786-2.349
	c-3.887,0-7.119,0.78-9.709,2.349c-2.592,1.561-4.667,3.582-6.228,6.064c-1.569,2.482-2.669,5.338-3.317,8.569
	c-0.648,3.239-0.968,6.532-0.968,9.873C242.747,99.626,243.067,102.896,243.715,106.073 M222.846,78.086
	c2.045-5.448,4.956-10.083,8.733-13.907c3.777-3.832,8.304-6.798,13.595-8.905c5.276-2.1,11.215-3.153,17.795-3.153
	c6.57,0,12.533,1.053,17.872,3.153c5.338,2.107,9.887,5.073,13.665,8.905c3.777,3.824,6.688,8.459,8.74,13.907
	c2.045,5.448,3.076,11.511,3.076,18.2c0,6.688-1.031,12.729-3.076,18.122c-2.052,5.385-4.963,9.997-8.74,13.829
	c-3.778,3.824-8.327,6.766-13.665,8.811c-5.339,2.053-11.302,3.075-17.872,3.075c-6.58,0-12.519-1.022-17.795-3.075
	c-5.291-2.045-9.818-4.987-13.595-8.811c-3.777-3.832-6.688-8.444-8.733-13.829c-2.045-5.393-3.075-11.434-3.075-18.122
	C219.771,89.597,220.801,83.534,222.846,78.086"/>
<path fill="#D52329" d="M339.868,54.388v11.324h0.328c3.012-4.316,6.657-7.656,10.91-10.028c4.262-2.373,9.147-3.559,14.641-3.559
	c5.284,0,10.115,1.022,14.477,3.067c4.371,2.053,7.687,5.666,9.951,10.84c2.482-3.66,5.853-6.899,10.114-9.701
	c4.262-2.809,9.303-4.206,15.125-4.206c4.417,0,8.515,0.538,12.292,1.616c3.778,1.077,7.009,2.801,9.709,5.174
	c2.692,2.372,4.792,5.478,6.306,9.303c1.506,3.832,2.263,8.444,2.263,13.829v55.973h-22.968V90.624c0-2.802-0.109-5.447-0.328-7.929
	c-0.211-2.482-0.804-4.636-1.779-6.47c-0.968-1.834-2.396-3.286-4.285-4.363c-1.889-1.085-4.448-1.623-7.679-1.623
	c-3.24,0-5.854,0.624-7.852,1.865c-1.997,1.241-3.558,2.857-4.69,4.846c-1.132,1.999-1.889,4.262-2.264,6.798
	c-0.382,2.536-0.569,5.097-0.569,7.68v46.592h-22.969V91.108c0-2.482-0.054-4.932-0.163-7.36c-0.11-2.427-0.562-4.667-1.374-6.712
	c-0.804-2.044-2.154-3.691-4.043-4.932c-1.888-1.241-4.667-1.865-8.327-1.865c-1.085,0-2.513,0.242-4.292,0.726
	c-1.78,0.491-3.504,1.404-5.175,2.755c-1.67,1.35-3.106,3.285-4.284,5.822c-1.186,2.536-1.78,5.853-1.78,9.95v48.528h-22.976V54.388
	H339.868z"/>
<path fill="#D52329" d="M510.999,73.961c-2.747-3.02-6.93-4.526-12.542-4.526c-3.668,0-6.711,0.616-9.138,1.857
	c-2.42,1.241-4.363,2.778-5.823,4.612c-1.451,1.834-2.481,3.778-3.074,5.823c-0.594,2.052-0.945,3.878-1.046,5.502h37.367
	C515.666,81.406,513.746,76.982,510.999,73.961 M485.034,117.962c3.45,3.348,8.413,5.019,14.883,5.019
	c4.636,0,8.624-1.164,11.972-3.481c3.34-2.318,5.393-4.768,6.149-7.36h20.222c-3.239,10.029-8.203,17.201-14.883,21.517
	c-6.696,4.316-14.781,6.47-24.272,6.47c-6.579,0-12.51-1.054-17.794-3.153c-5.283-2.108-9.763-5.096-13.423-8.983
	c-3.668-3.879-6.501-8.515-8.491-13.907c-1.998-5.393-2.997-11.325-2.997-17.802c0-6.252,1.03-12.074,3.074-17.466
	c2.053-5.393,4.956-10.053,8.734-13.994c3.777-3.933,8.28-7.04,13.509-9.302c5.229-2.264,11.027-3.395,17.388-3.395
	c7.126,0,13.322,1.373,18.606,4.12c5.283,2.755,9.623,6.446,13.026,11.082c3.394,4.644,5.845,9.927,7.359,15.859
	c1.506,5.931,2.044,12.128,1.615,18.598h-60.335C479.696,109.229,481.583,114.622,485.034,117.962"/>
<path fill="#D52329" d="M573.359,54.388v11.644h0.483c2.911-4.854,6.688-8.381,11.324-10.59s9.38-3.317,14.235-3.317
	c6.15,0,11.191,0.835,15.125,2.505s7.039,3.988,9.303,6.954c2.264,2.973,3.855,6.587,4.776,10.84
	c0.913,4.261,1.373,8.983,1.373,14.157v51.439h-22.976V90.788c0-6.899-1.077-12.058-3.231-15.453
	c-2.161-3.395-5.985-5.096-11.487-5.096c-6.252,0-10.786,1.865-13.588,5.58c-2.81,3.723-4.206,9.841-4.206,18.364v43.837h-22.969
	V54.388H573.359z"/>
<path fill="#D52329" d="M691.608,54.388v15.367h-16.827v41.418c0,3.879,0.648,6.462,1.943,7.757
	c1.296,1.296,3.879,1.944,7.766,1.944c1.296,0,2.528-0.055,3.722-0.164c1.188-0.102,2.319-0.265,3.396-0.484v17.794
	c-1.944,0.328-4.098,0.538-6.471,0.648c-2.372,0.109-4.69,0.163-6.953,0.163c-3.56,0-6.938-0.241-10.115-0.725
	c-3.184-0.492-5.985-1.436-8.413-2.833c-2.427-1.405-4.339-3.395-5.736-5.986c-1.412-2.591-2.106-5.986-2.106-10.192v-49.34h-13.915
	V54.388h13.915V29.313h22.968v25.075H691.608z"/>
<path fill="#D52329" d="M759.338,138.021v-11.644h-0.483c-2.911,4.854-6.688,8.359-11.324,10.513
	c-4.636,2.153-9.381,3.231-14.235,3.231c-6.149,0-11.191-0.804-15.125-2.428c-3.941-1.615-7.039-3.901-9.303-6.867
	c-2.264-2.966-3.855-6.579-4.776-10.841c-0.913-4.261-1.373-8.983-1.373-14.157V54.391h22.976v47.232
	c0,6.906,1.077,12.058,3.231,15.452c2.153,3.395,5.985,5.097,11.487,5.097c6.252,0,10.786-1.866,13.588-5.588
	c2.802-3.715,4.206-9.834,4.206-18.356V54.391h22.969v83.631H759.338z"/>
<path fill="#D52329" d="M821.079,54.388v11.324h0.328c3.013-4.316,6.657-7.656,10.918-10.028c4.262-2.373,9.14-3.559,14.642-3.559
	c5.283,0,10.106,1.022,14.477,3.067c4.363,2.053,7.68,5.666,9.951,10.84c2.474-3.66,5.845-6.899,10.106-9.701
	c4.261-2.809,9.303-4.206,15.125-4.206c4.425,0,8.515,0.538,12.292,1.616c3.777,1.077,7.015,2.801,9.708,5.174
	c2.693,2.372,4.8,5.478,6.307,9.303c1.514,3.832,2.271,8.444,2.271,13.829v55.973h-22.977V90.624c0-2.802-0.108-5.447-0.319-7.929
	c-0.219-2.482-0.812-4.636-1.779-6.47c-0.976-1.834-2.403-3.286-4.284-4.363c-1.889-1.085-4.449-1.623-7.688-1.623
	c-3.231,0-5.854,0.624-7.844,1.865c-1.998,1.241-3.559,2.857-4.69,4.846c-1.14,1.999-1.897,4.262-2.263,6.798
	c-0.383,2.536-0.57,5.097-0.57,7.68v46.592h-22.976V91.108c0-2.482-0.048-4.932-0.156-7.36c-0.109-2.427-0.57-4.667-1.374-6.712
	c-0.812-2.044-2.161-3.691-4.042-4.932c-1.896-1.241-4.675-1.865-8.336-1.865c-1.077,0-2.505,0.242-4.284,0.726
	c-1.779,0.491-3.504,1.404-5.182,2.755c-1.672,1.35-3.099,3.285-4.285,5.822c-1.187,2.536-1.779,5.853-1.779,9.95v48.528h-22.969
	V54.388H821.079z"/>
<polygon fill="#073E5E" points="117.487,152.699 144.506,232.124 144.825,232.124 170.385,152.699 206.136,152.699 206.136,268.195 
	182.357,268.195 182.357,186.343 182.029,186.343 153.722,268.195 134.149,268.195 105.842,187.155 105.515,187.155 
	105.515,268.195 81.735,268.195 81.735,152.699 "/>
<path fill="#073E5E" d="M272.916,204.139c-2.755-3.021-6.93-4.526-12.542-4.526c-3.668,0-6.712,0.617-9.139,1.857
	c-2.427,1.241-4.362,2.778-5.822,4.612c-1.459,1.834-2.482,3.777-3.074,5.822c-0.594,2.053-0.945,3.887-1.054,5.502h37.367
	C277.575,211.584,275.663,207.159,272.916,204.139 M246.951,248.14c3.449,3.349,8.413,5.019,14.883,5.019
	c4.636,0,8.624-1.164,11.971-3.48c3.341-2.318,5.394-4.769,6.15-7.359h20.214c-3.231,10.028-8.195,17.2-14.883,21.517
	c-6.689,4.315-14.774,6.47-24.264,6.47c-6.579,0-12.51-1.054-17.794-3.153c-5.283-2.107-9.763-5.096-13.423-8.982
	c-3.668-3.879-6.501-8.515-8.492-13.907c-1.998-5.394-2.996-11.324-2.996-17.794c0-6.26,1.022-12.082,3.074-17.475
	c2.045-5.393,4.956-10.052,8.733-13.993c3.778-3.934,8.281-7.04,13.51-9.303c5.229-2.264,11.027-3.395,17.388-3.395
	c7.118,0,13.322,1.373,18.606,4.12c5.283,2.755,9.622,6.445,13.017,11.082c3.403,4.645,5.854,9.928,7.368,15.858
	c1.506,5.932,2.044,12.129,1.615,18.599h-60.343C241.613,239.407,243.501,244.8,246.951,248.14"/>
<path fill="#073E5E" d="M359.377,184.566v15.367h-16.826v41.417c0,3.879,0.647,6.463,1.943,7.766
	c1.296,1.288,3.886,1.936,7.765,1.936c1.296,0,2.529-0.055,3.723-0.156c1.186-0.109,2.318-0.272,3.395-0.491v17.794
	c-1.943,0.328-4.098,0.538-6.47,0.647c-2.373,0.109-4.691,0.164-6.953,0.164c-3.567,0-6.931-0.242-10.115-0.726
	c-3.184-0.492-5.986-1.429-8.413-2.833c-2.427-1.406-4.34-3.396-5.744-5.986c-1.397-2.591-2.1-5.985-2.1-10.192v-49.339h-13.915
	v-15.367h13.915V159.49h22.969v25.076H359.377z"/>
<path fill="#073E5E" d="M392.342,184.566v15.53h0.32c1.085-2.591,2.536-4.986,4.37-7.195c1.834-2.216,3.934-4.104,6.307-5.666
	c2.372-1.561,4.908-2.778,7.608-3.637c2.693-0.866,5.495-1.296,8.406-1.296c1.514,0,3.184,0.273,5.018,0.805v21.36
	c-1.077-0.219-2.372-0.406-3.879-0.57c-1.513-0.163-2.965-0.241-4.37-0.241c-4.206,0-7.765,0.702-10.676,2.099
	c-2.911,1.405-5.261,3.317-7.04,5.744c-1.779,2.428-3.051,5.261-3.801,8.491c-0.757,3.239-1.131,6.743-1.131,10.521v37.688h-22.968
	v-83.632H392.342z"/>
<path fill="#073E5E" d="M450.095,236.252c0.647,3.184,1.748,6.04,3.317,8.569c1.56,2.536,3.636,4.558,6.227,6.071
	c2.591,1.514,5.822,2.264,9.701,2.264c3.886,0,7.149-0.75,9.795-2.264c2.637-1.514,4.737-3.535,6.305-6.071
	c1.561-2.529,2.67-5.386,3.318-8.569c0.647-3.185,0.967-6.447,0.967-9.787s-0.32-6.634-0.967-9.872
	c-0.648-3.231-1.757-6.088-3.318-8.569c-1.568-2.482-3.668-4.503-6.305-6.064c-2.646-1.568-5.909-2.349-9.795-2.349
	c-3.879,0-7.11,0.78-9.701,2.349c-2.591,1.562-4.667,3.582-6.227,6.064c-1.569,2.481-2.67,5.338-3.317,8.569
	c-0.648,3.238-0.976,6.532-0.976,9.872S449.447,233.067,450.095,236.252 M429.226,208.265c2.044-5.447,4.956-10.083,8.733-13.915
	c3.777-3.824,8.304-6.789,13.587-8.897c5.284-2.099,11.215-3.152,17.794-3.152c6.579,0,12.542,1.054,17.88,3.152
	c5.338,2.108,9.888,5.073,13.665,8.897c3.778,3.832,6.689,8.468,8.741,13.915c2.045,5.448,3.075,11.512,3.075,18.2
	s-1.03,12.729-3.075,18.113c-2.052,5.394-4.963,10.006-8.741,13.838c-3.777,3.824-8.327,6.767-13.665,8.812
	c-5.338,2.053-11.301,3.074-17.88,3.074c-6.579,0-12.51-1.021-17.794-3.074c-5.283-2.045-9.81-4.987-13.587-8.812
	c-3.777-3.832-6.689-8.444-8.733-13.838c-2.053-5.385-3.075-11.425-3.075-18.113S427.172,213.713,429.226,208.265"/>
<path fill="#073E5E" d="M573.696,250.896c2.536-1.514,4.589-3.48,6.149-5.907c1.562-2.428,2.669-5.261,3.317-8.491
	c0.647-3.239,0.968-6.524,0.968-9.873c0-3.34-0.352-6.634-1.054-9.864c-0.695-3.239-1.857-6.119-3.473-8.655
	c-1.616-2.536-3.7-4.581-6.229-6.149c-2.536-1.562-5.635-2.342-9.303-2.342c-3.777,0-6.931,0.78-9.467,2.342
	c-2.536,1.568-4.581,3.59-6.143,6.071c-1.568,2.474-2.669,5.338-3.317,8.569c-0.647,3.238-0.967,6.579-0.967,10.028
	c0,3.349,0.343,6.634,1.046,9.873c0.702,3.23,1.834,6.063,3.395,8.491c1.568,2.427,3.644,4.394,6.228,5.907
	c2.591,1.507,5.721,2.264,9.389,2.264C568.007,253.159,571.168,252.402,573.696,250.896 M543.852,184.566v10.677h0.328
	c2.801-4.527,6.36-7.82,10.668-9.864c4.315-2.054,9.061-3.076,14.235-3.076c6.579,0,12.245,1.241,16.989,3.723
	c4.745,2.482,8.679,5.768,11.809,9.865s5.447,8.873,6.954,14.313c1.514,5.447,2.263,11.137,2.263,17.067
	c0,5.611-0.749,11.005-2.263,16.179c-1.507,5.175-3.801,9.764-6.876,13.752c-3.067,3.987-6.899,7.172-11.48,9.545
	c-4.589,2.364-9.95,3.559-16.101,3.559c-5.174,0-9.942-1.054-14.313-3.161c-4.37-2.1-7.952-5.198-10.754-9.295h-0.327v39.631
	h-22.968V184.566H543.852z"/>
<path fill="#073E5E" d="M640.429,236.252c0.641,3.184,1.748,6.04,3.317,8.569c1.561,2.536,3.637,4.558,6.22,6.071
	c2.599,1.514,5.83,2.264,9.709,2.264c3.887,0,7.148-0.75,9.786-2.264c2.646-1.514,4.745-3.535,6.314-6.071
	c1.561-2.529,2.669-5.386,3.316-8.569c0.641-3.185,0.968-6.447,0.968-9.787s-0.327-6.634-0.968-9.872
	c-0.647-3.231-1.756-6.088-3.316-8.569c-1.569-2.482-3.668-4.503-6.314-6.064c-2.638-1.568-5.899-2.349-9.786-2.349
	c-3.879,0-7.11,0.78-9.709,2.349c-2.583,1.562-4.659,3.582-6.22,6.064c-1.569,2.481-2.677,5.338-3.317,8.569
	c-0.647,3.238-0.976,6.532-0.976,9.872S639.781,233.067,640.429,236.252 M619.561,208.265c2.045-5.447,4.955-10.083,8.732-13.915
	c3.777-3.824,8.304-6.789,13.588-8.897c5.283-2.099,11.215-3.152,17.794-3.152s12.541,1.054,17.88,3.152
	c5.338,2.108,9.888,5.073,13.665,8.897c3.777,3.832,6.688,8.468,8.733,13.915c2.053,5.448,3.075,11.512,3.075,18.2
	s-1.022,12.729-3.075,18.113c-2.045,5.394-4.956,10.006-8.733,13.838c-3.777,3.824-8.327,6.767-13.665,8.812
	c-5.339,2.053-11.301,3.074-17.88,3.074s-12.511-1.021-17.794-3.074c-5.284-2.045-9.811-4.987-13.588-8.812
	c-3.777-3.832-6.688-8.444-8.732-13.838c-2.053-5.385-3.075-11.425-3.075-18.113S617.508,213.713,619.561,208.265"/>
<rect x="716.794" y="152.705" fill="#073E5E" width="22.976" height="115.497"/>
<path fill="#073E5E" d="M781.18,268.202h-22.977V184.57h22.977V268.202z M758.203,152.698h22.977v18.925h-22.977V152.698z"/>
<path fill="#073E5E" d="M840.11,184.566v15.367h-16.826v41.417c0,3.879,0.647,6.463,1.943,7.766
	c1.295,1.288,3.879,1.936,7.766,1.936c1.295,0,2.528-0.055,3.723-0.156c1.178-0.109,2.317-0.272,3.395-0.491v17.794
	c-1.943,0.328-4.098,0.538-6.47,0.647c-2.373,0.109-4.69,0.164-6.962,0.164c-3.551,0-6.922-0.242-10.106-0.726
	c-3.184-0.492-5.986-1.429-8.413-2.833c-2.427-1.406-4.339-3.396-5.744-5.986c-1.404-2.591-2.1-5.985-2.1-10.192v-49.339H786.4
	v-15.367h13.915V159.49h22.969v25.076H840.11z"/>
<path fill="#073E5E" d="M903.328,227.276c-0.976,0.858-2.186,1.538-3.645,2.021c-1.451,0.484-3.021,0.89-4.69,1.21
	c-1.67,0.328-3.426,0.593-5.26,0.812c-1.834,0.211-3.66,0.483-5.494,0.804c-1.726,0.328-3.427,0.757-5.097,1.296
	c-1.678,0.538-3.13,1.271-4.37,2.185c-1.241,0.921-2.24,2.076-2.989,3.474c-0.758,1.404-1.132,3.184-1.132,5.346
	c0,2.045,0.374,3.777,1.132,5.174c0.749,1.405,1.779,2.506,3.074,3.317c1.288,0.812,2.802,1.373,4.527,1.693
	c1.725,0.328,3.504,0.491,5.338,0.491c4.534,0,8.03-0.757,10.513-2.271c2.481-1.506,4.315-3.31,5.502-5.416
	c1.187-2.1,1.912-4.23,2.186-6.392c0.265-2.154,0.405-3.88,0.405-5.175V227.276z M850.267,210.286
	c0.327-5.393,1.67-9.864,4.042-13.423c2.373-3.56,5.394-6.416,9.062-8.577c3.66-2.154,7.788-3.691,12.378-4.612
	c4.58-0.913,9.186-1.374,13.829-1.374c4.206,0,8.46,0.297,12.775,0.89c4.316,0.593,8.249,1.756,11.816,3.481
	c3.551,1.725,6.47,4.12,8.732,7.195c2.263,3.074,3.396,7.148,3.396,12.214v43.517c0,3.778,0.218,7.383,0.647,10.841
	c0.429,3.449,1.187,6.04,2.264,7.766h-23.297c-0.429-1.296-0.78-2.614-1.046-3.965c-0.272-1.351-0.46-2.724-0.569-4.129
	c-3.668,3.777-7.983,6.423-12.939,7.93c-4.964,1.506-10.036,2.263-15.211,2.263c-3.988,0-7.711-0.483-11.16-1.459
	c-3.449-0.968-6.47-2.475-9.053-4.526c-2.592-2.045-4.612-4.636-6.072-7.766c-1.459-3.122-2.185-6.845-2.185-11.161
	c0-4.744,0.835-8.654,2.513-11.729c1.67-3.067,3.824-5.526,6.47-7.36c2.638-1.834,5.658-3.207,9.053-4.128
	c3.403-0.913,6.821-1.64,10.278-2.178c3.45-0.538,6.845-0.976,10.185-1.296c3.349-0.327,6.314-0.812,8.906-1.459
	c2.582-0.647,4.627-1.592,6.141-2.825c1.515-1.241,2.209-3.052,2.107-5.424c0-2.482-0.405-4.449-1.218-5.9
	c-0.804-1.459-1.889-2.591-3.23-3.402c-1.351-0.805-2.919-1.343-4.69-1.616c-1.787-0.266-3.699-0.405-5.744-0.405
	c-4.534,0-8.093,0.976-10.685,2.911c-2.583,1.943-4.089,5.182-4.526,9.708H850.267z"/>
<path fill="#073E5E" d="M961.645,184.566v11.644h0.482c2.912-4.854,6.689-8.381,11.325-10.59s9.38-3.317,14.235-3.317
	c6.15,0,11.191,0.835,15.125,2.506c3.941,1.678,7.039,3.988,9.303,6.953c2.264,2.974,3.855,6.587,4.769,10.841
	c0.921,4.261,1.381,8.982,1.381,14.157v51.438h-22.976v-47.232c0-6.898-1.078-12.058-3.231-15.452
	c-2.161-3.396-5.985-5.097-11.487-5.097c-6.252,0-10.786,1.865-13.588,5.58c-2.81,3.723-4.206,9.85-4.206,18.364v43.837h-22.969
	v-83.632H961.645z"/>
</svg>
