<svg height="319.374388" viewBox="0 0 26.513453 27.060538" width="313.112146" xmlns="http://www.w3.org/2000/svg" xmlns:xlink="http://www.w3.org/1999/xlink"><symbol id="a" overflow="visible"/><symbol id="b" overflow="visible"/><symbol id="c" overflow="visible"/><g transform="translate(-226.77638 -97.458654)"><path d="m234.24948 97.590946-7.34081 4.841044v17.11248l7.34081 4.84243 5.85667-3.96048 5.8663 3.96048 7.18509-4.85069v-17.09457l-7.18509-4.850694-5.8663 3.959104zm0 0" fill="#fff"/><path d="m234.24121 114.8743 4.69222 3.22599-4.69222 3.22736zm17.59755-11.73124-5.86631-3.96048-5.8663 3.96048-5.86494-3.96048-6.01238 3.96048v15.69173l6.01238 3.9591 5.86494-3.9591 5.8663 3.9591 5.86631-3.9591zm-5.86631 5.42534v-7.91821l4.54615 3.07854v14.22549l-21.11706-14.07804 4.83967-3.22599zm0 0" fill="#00633a"/><g transform="matrix(.35277779 0 0 .35277779 62.844951 80.078836)"><use fill="#00633a" height="100%" width="100%" x="339.71179" xlink:href="#a" y="242.7408"/><use fill="#00633a" height="100%" width="100%" x="96.655182" xlink:href="#a" y="273.4353"/><use fill="#00633a" height="100%" width="100%" x="327.56641" xlink:href="#a" y="273.4353"/><use fill="#fff" height="100%" width="100%" x="276.65591" xlink:href="#b" y="687.93652"/><use fill="#fff" height="100%" width="100%" x="98.703903" xlink:href="#c" y="711.93652"/></g></g></svg>