<?xml version="1.0" encoding="UTF-8" standalone="no"?>
<!-- Created with Inkscape (http://www.inkscape.org/) -->

<svg
   xmlns:dc="http://purl.org/dc/elements/1.1/"
   xmlns:cc="http://creativecommons.org/ns#"
   xmlns:rdf="http://www.w3.org/1999/02/22-rdf-syntax-ns#"
   xmlns:svg="http://www.w3.org/2000/svg"
   xmlns="http://www.w3.org/2000/svg"
   xmlns:sodipodi="http://sodipodi.sourceforge.net/DTD/sodipodi-0.dtd"
   xmlns:inkscape="http://www.inkscape.org/namespaces/inkscape"
   width="654.40039"
   height="167.58482"
   id="svg2938"
   version="1.1"
   inkscape:version="0.47 r22583"
   sodipodi:docname="Neues Dokument 3">
  <defs
     id="defs2940">
    <inkscape:perspective
       sodipodi:type="inkscape:persp3d"
       inkscape:vp_x="0 : 526.18109 : 1"
       inkscape:vp_y="0 : 1000 : 0"
       inkscape:vp_z="744.09448 : 526.18109 : 1"
       inkscape:persp3d-origin="372.04724 : 350.78739 : 1"
       id="perspective2946" />
    <inkscape:perspective
       id="perspective2931"
       inkscape:persp3d-origin="0.5 : 0.33333333 : 1"
       inkscape:vp_z="1 : 0.5 : 1"
       inkscape:vp_y="0 : 1000 : 0"
       inkscape:vp_x="0 : 0.5 : 1"
       sodipodi:type="inkscape:persp3d" />
  </defs>
  <sodipodi:namedview
     id="base"
     pagecolor="#ffffff"
     bordercolor="#666666"
     borderopacity="1.0"
     inkscape:pageopacity="0.0"
     inkscape:pageshadow="2"
     inkscape:zoom="0.99842035"
     inkscape:cx="327.2002"
     inkscape:cy="83.792412"
     inkscape:document-units="px"
     inkscape:current-layer="layer1"
     showgrid="false"
     inkscape:window-width="1024"
     inkscape:window-height="749"
     inkscape:window-x="-4"
     inkscape:window-y="-4"
     inkscape:window-maximized="1" />
  <metadata
     id="metadata2943">
    <rdf:RDF>
      <cc:Work
         rdf:about="">
        <dc:format>image/svg+xml</dc:format>
        <dc:type
           rdf:resource="http://purl.org/dc/dcmitype/StillImage" />
        <dc:title></dc:title>
      </cc:Work>
    </rdf:RDF>
  </metadata>
  <g
     inkscape:label="Ebene 1"
     inkscape:groupmode="layer"
     id="layer1"
     transform="translate(-8.4442386,-445.71263)">
    <g
       transform="matrix(0.85434352,0,0,0.85434352,670.18142,926.37673)"
       id="g2904">
      <path
         id="path2894"
         d="m -774.55633,-562.61222 0,51.625 0,92.90625 c 0,1.78772 0.1056,3.54135 0.2813,5.28125 0.1756,1.7399 0.4384,3.44144 0.7812,5.125 0.3428,1.68356 0.7486,3.35006 1.25,4.96875 0.5014,1.61869 1.0986,3.2047 1.75,4.75 1.3029,3.0906 2.8979,6.03533 4.75,8.78125 1.8521,2.74592 3.9482,5.29192 6.2813,7.625 2.333,2.33308 4.879,4.42919 7.625,6.28125 2.7459,1.85206 5.6906,3.44712 8.7812,4.75 1.5453,0.65144 3.1313,1.24864 4.75,1.75 1.6187,0.50136 3.2852,0.90724 4.9688,1.25 1.6835,0.34276 3.3851,0.60561 5.125,0.78125 1.7399,0.17564 3.4935,0.28125 5.2812,0.28125 l 662.718722,0 51.6250045,0 0,-51.625 0,-92.90625 c 0,-1.78772 -0.0744,-3.54136 -0.25,-5.28125 -0.17564,-1.7399 -0.43848,-3.44144 -0.78125,-5.125 -0.34276,-1.68357 -0.7798905,-3.35006 -1.2812505,-4.96875 -0.50136,-1.61869 -1.06731,-3.2047 -1.718749,-4.75 -1.30287,-3.0906 -2.89793,-6.03533 -4.75,-8.78125 -1.85206,-2.74592 -3.97942,-5.29192 -6.3125,-7.625 -2.33307,-2.33308 -4.879071,-4.42919 -7.625001,-6.28125 -2.745921,-1.85207 -5.690641,-3.44712 -8.781251,-4.75 -1.5453,-0.65144 -3.13131,-1.24864 -4.75,-1.75 -1.61869,-0.50136 -3.25394,-0.90724 -4.9375,-1.25 -1.68355,-0.34276 -3.41635,-0.60561 -5.15625,-0.78125 -1.7399,-0.17564 -3.49352,-0.28125 -5.281253,-0.28125 l -662.718722,0 -51.625,0 z"
         style="fill:#eb6a1e;fill-opacity:1;stroke:none" />
      <path
         id="path2857"
         d="m -256.94697,-533.98335 c -17.53253,-0.70655 -57.67768,9.9823 -58.46875,32.806 l 0,58.34375 c 0,0 -0.0939,7.84667 -7.65625,7.75 -6.48809,-0.0849 -6.875,-7.75 -6.875,-7.75 l 0,-88.40625 -60.84375,0 c 0,0 -22.57549,6.93226 -31.5,27.21875 -6.62677,15.06343 -9.88231,30.88102 -14.8125,42.65625 -7.13027,17.02992 -12.84375,24.625 -12.84375,24.625 l -10.75,-17.46875 c 0,0 20.01766,-12.41042 19.9375,-37.96875 -0.0888,-27.90194 -31.97859,-38.6875 -49.875,-38.6875 l -217.28125,-0.375 0,45.8125 34.34375,0 0,-15.75 17.1875,0 0,72.3125 c 0,0 -0.76126,14.6719 6.40625,21.96875 3.34679,3.40718 7.97499,8.8125 20.34375,8.8125 l 27.3125,0 -0.1875,-30.78125 c 0,0 -4.92497,-0.19005 -7.875,-2.09375 -1.46399,-0.94473 -3.12073,-2.74603 -3.03125,-6.59375 l 0,-63.625 17.15625,0 0,15.75 31.5,0 0,52.15625 -8.9375,4.40625 -0.34375,30.78125 53.6875,0 0,-50.125 c 0,0 9.79327,-0.49606 15.03096,8.41131 9.23336,15.70252 25.40654,41.71369 25.40654,41.71369 l 49.75,0 c 8.73814,0 13.787,-0.88602 21.46875,-15.03125 4.49648,-8.27985 7.01512,-17.39127 9.21875,-26.625 l 28,0 0,41.65625 278.468752,0 0,-44.75 -35.062502,0 0,13.96875 -33.65625,0 0,-21.53125 25.78125,0 0,-30.125 -25.78125,0 0,-20.65625 33.65625,0 0,14.0625 35.062502,0 0,-44.125 -111.656252,0 0,12.53125 c 0,0 -10.7541,-15.27475 -52.28125,-15.27475 z m 2.78125,32.181 c 9.68043,0 17.46875,8.36731 17.46875,18.75 l 0,2.28125 31.125,0 0,31.125 -31.125,0 0,2.03125 c 0,10.38269 -7.78832,18.71875 -17.46875,18.71875 -9.68043,0 -17.5,-8.33606 -17.5,-18.71875 l 0,-35.4375 c 0,-10.38269 7.81957,-18.75 17.5,-18.75 z m -266.1875,0.625 20.21875,0 c 2.68446,0 14.27985,0.56984 14.21875,11.75 -0.0671,12.27503 -11.05136,11.9375 -14.09375,11.9375 l -20.34375,0 0,-23.6875 z m 148.875,4.46875 0,28.125 -20.09375,0 c 0.14058,-0.36167 0.26061,-0.73406 0.40625,-1.09375 8.5423,-21.0966 19.6875,-27.03125 19.6875,-27.03125 z"
         style="fill:#ffffff;stroke:none"
         sodipodi:nodetypes="cccccccssccccccccccscccsccccccccccsccscccccccccccccccccccccccccccscccccsccccccsc" />
    </g>
  </g>
</svg>
